<?xml version="1.0" encoding="UTF-8"?>
<svg version="1.1" xmlns="http://www.w3.org/2000/svg" width="500" height="300">
<path d="M0 0 C0.68359589 -0.00686325 1.36719177 -0.0137265 2.07150269 -0.02079773 C4.32075039 -0.03902929 6.56929811 -0.03523368 8.81860352 -0.02954102 C10.3889234 -0.0341047 11.95924128 -0.03941084 13.52955627 -0.04542542 C16.81715012 -0.05434941 20.10450095 -0.05194176 23.39208984 -0.04199219 C27.59655372 -0.03050514 31.80017739 -0.05071277 36.00453091 -0.07990932 C39.24657991 -0.09829248 42.48842837 -0.09797468 45.73051643 -0.0922718 C47.28020468 -0.09211884 48.82990673 -0.09814288 50.37954521 -0.11056328 C52.55043471 -0.12551202 54.71978237 -0.11477022 56.890625 -0.09765625 C58.73997902 -0.097407 58.73997902 -0.097407 60.62669373 -0.09715271 C64.67423668 0.50245151 66.83150153 1.87382438 70.01000977 4.40405273 C73.65802514 9.48521701 75.25933452 14.20978409 75.26879883 20.44775391 C75.27510315 21.64216599 75.28140747 22.83657806 75.28790283 24.06718445 C75.28385437 25.34753067 75.27980591 26.62787689 75.27563477 27.94702148 C75.27754822 29.26696609 75.27946167 30.58691071 75.28143311 31.94685364 C75.28437447 34.73333442 75.28011662 37.51968656 75.27075195 40.30615234 C75.25932453 43.8807933 75.26594364 47.455135 75.27789688 51.02976513 C75.2868476 54.43970815 75.28058876 57.84956995 75.27563477 61.25952148 C75.27968323 62.5459404 75.28373169 63.83235931 75.28790283 65.15776062 C75.27844635 66.93519402 75.27844635 66.93519402 75.26879883 68.74853516 C75.26720764 69.79490646 75.26561646 70.84127777 75.26397705 71.9193573 C75.01000977 74.40405273 75.01000977 74.40405273 73.01000977 76.40405273 C70.02905273 76.63110352 70.02905273 76.63110352 66.25219727 76.59936523 C65.58914581 76.59653534 64.92609436 76.59370544 64.24295044 76.59078979 C62.12345393 76.57958709 60.00437872 76.55448324 57.88500977 76.52905273 C56.44881795 76.51902301 55.01261951 76.50989715 53.57641602 76.50170898 C50.05414348 76.47964774 46.53211773 76.44511767 43.01000977 76.40405273 C41.73863202 73.86129725 41.88058477 72.05597073 41.87719727 69.21264648 C41.8759082 68.1859082 41.87461914 67.15916992 41.87329102 66.10131836 C41.8771582 65.0255957 41.88102539 63.94987305 41.88500977 62.84155273 C41.88114258 61.76196289 41.87727539 60.68237305 41.87329102 59.57006836 C41.87458008 58.54461914 41.87586914 57.51916992 41.87719727 56.46264648 C41.8783252 55.51703857 41.87945312 54.57143066 41.88061523 53.59716797 C42.01000977 51.40405273 42.01000977 51.40405273 43.01000977 50.40405273 C45.98000977 50.40405273 48.95000977 50.40405273 52.01000977 50.40405273 C52.01000977 44.13405273 52.01000977 37.86405273 52.01000977 31.40405273 C37.16000977 31.40405273 22.31000977 31.40405273 7.01000977 31.40405273 C7.01000977 37.67405273 7.01000977 43.94405273 7.01000977 50.40405273 C9.65000977 50.40405273 12.29000977 50.40405273 15.01000977 50.40405273 C15.01000977 81.42405273 15.01000977 112.44405273 15.01000977 144.40405273 C12.37000977 144.40405273 9.73000977 144.40405273 7.01000977 144.40405273 C7.01000977 150.67405273 7.01000977 156.94405273 7.01000977 163.40405273 C21.86000977 163.40405273 36.71000977 163.40405273 52.01000977 163.40405273 C51.51500977 154.49405273 51.51500977 154.49405273 51.01000977 145.40405273 C48.37000977 145.07405273 45.73000977 144.74405273 43.01000977 144.40405273 C41.32977977 142.72382274 41.87994172 140.64629346 41.87719727 138.34545898 C41.87526367 136.80728516 41.87526367 136.80728516 41.87329102 135.23803711 C41.8771582 134.15844727 41.88102539 133.07885742 41.88500977 131.96655273 C41.87920898 130.35296875 41.87920898 130.35296875 41.87329102 128.70678711 C41.87458008 127.68004883 41.87586914 126.65331055 41.87719727 125.59545898 C41.8783252 124.64872314 41.87945312 123.7019873 41.88061523 122.7265625 C42.01000977 120.40405273 42.01000977 120.40405273 43.01000977 118.40405273 C47.40657149 118.3793977 51.80309697 118.36121431 56.19970703 118.34912109 C57.69645895 118.34408153 59.19320592 118.33724986 60.68994141 118.32861328 C62.83700784 118.31653115 64.98400939 118.31082082 67.13110352 118.30639648 C69.07134399 118.29854126 69.07134399 118.29854126 71.05078125 118.29052734 C74.01000977 118.40405273 74.01000977 118.40405273 75.01000977 119.40405273 C75.1196415 121.26365894 75.1591128 123.12743819 75.17114258 124.99023438 C75.18075012 126.18560318 75.19035767 127.38097198 75.20025635 128.61256409 C75.20450623 129.9166069 75.2087561 131.22064972 75.21313477 132.56420898 C75.2188872 133.91124982 75.22464492 135.25829063 75.23040771 136.60533142 C75.24093277 139.43757509 75.24676409 142.26979029 75.25024414 145.10205078 C75.25570146 148.7143932 75.27966289 152.32635343 75.30821609 155.9385767 C75.32694285 158.7260188 75.33205359 161.51337123 75.33358002 164.3008709 C75.33804591 166.27493033 75.35665423 168.24894159 75.37554932 170.22291565 C75.33947082 184.85861965 75.33947082 184.85861965 70.55792236 189.95033264 C65.96975616 193.91400569 63.32732125 194.53499358 57.37646484 194.59692383 C56.35413757 194.60919006 56.35413757 194.60919006 55.31115723 194.6217041 C53.05062741 194.64655887 50.79016055 194.6630773 48.52954102 194.67749023 C47.75680029 194.68281391 46.98405956 194.68813759 46.18790245 194.69362259 C42.09500495 194.72035901 38.00213796 194.73972924 33.90917969 194.75415039 C30.52674209 194.76747283 27.14491019 194.79529215 23.76269531 194.83618164 C19.67544144 194.88559436 15.58873571 194.91028235 11.50119591 194.91737747 C9.94670316 194.92407646 8.39222199 194.93926344 6.83790016 194.96326828 C-6.84010015 195.16239732 -6.84010015 195.16239732 -11.37402344 192.12133789 C-15.78474636 187.53978436 -16.24085882 184.6364586 -16.25741577 178.2817688 C-16.26194688 177.56387928 -16.266478 176.84598976 -16.27114642 176.10634601 C-16.28380814 173.70047061 -16.28216893 171.29482106 -16.28051758 168.88891602 C-16.28650172 167.16409005 -16.293307 165.43926677 -16.3008728 163.71444702 C-16.31855144 159.02846575 -16.32322896 154.34255751 -16.32450438 149.65654612 C-16.32640315 145.74499644 -16.33376041 141.83346378 -16.34084857 137.92192066 C-16.35713712 128.69346243 -16.36201708 119.46504322 -16.3605957 110.23657227 C-16.35939405 100.71620952 -16.38049945 91.19607341 -16.41208303 81.67576802 C-16.43823212 73.50240198 -16.44896358 65.32911002 -16.44768488 57.15570247 C-16.44717486 52.27393879 -16.4528805 47.39237648 -16.47404099 42.51065445 C-16.4934004 37.91903605 -16.49356363 33.32781162 -16.47900772 28.73617935 C-16.47691568 27.05195541 -16.48164405 25.36770697 -16.49372864 23.68352509 C-16.50917201 21.38198833 -16.49988048 19.08181155 -16.48446655 16.78030396 C-16.48610085 14.84956622 -16.48610085 14.84956622 -16.48776817 12.87982368 C-15.76864081 7.85846417 -13.60839448 4.69824874 -9.67686462 1.55430603 C-6.29850653 0.10802795 -3.6744701 0.01611313 0 0 Z " fill="#F7791C" transform="translate(95.989990234375,52.595947265625)"/>
<path d="M0 0 C3.58795525 0.33377042 5.09438082 0.86697615 7.71166992 3.37329102 C9.75626932 6.23365576 11.47406115 9.14173162 13.16015625 12.2265625 C13.76988281 13.26748047 14.37960937 14.30839844 15.0078125 15.38085938 C16.1276482 17.29505514 17.23057331 19.2193129 18.31103516 21.15600586 C19.3626379 23.20365585 19.3626379 23.20365585 20.53515625 24.2890625 C21.13034058 23.24395508 21.13034058 23.24395508 21.73754883 22.17773438 C23.56630325 19.022071 25.45529879 15.90696414 27.34765625 12.7890625 C28.28254883 11.14357422 28.28254883 11.14357422 29.23632812 9.46484375 C33.84513982 2.00736955 33.84513982 2.00736955 38.21362305 0.15063477 C41.55203262 -0.23557737 43.43930893 -0.040027 46.53515625 1.2890625 C50.07569561 4.82467761 52.33417452 8.85714763 54.72265625 13.2265625 C55.72135742 14.93102539 55.72135742 14.93102539 56.74023438 16.66992188 C61.53515625 24.92428379 61.53515625 24.92428379 61.53515625 26.2890625 C57.57515625 26.2890625 53.61515625 26.2890625 49.53515625 26.2890625 C49.04015625 25.2990625 49.04015625 25.2990625 48.53515625 24.2890625 C45.82068646 23.97664795 43.19606264 23.77569658 40.47265625 23.6640625 C39.71404297 23.62539062 38.95542969 23.58671875 38.17382812 23.546875 C36.2946843 23.45232688 34.41495289 23.36959494 32.53515625 23.2890625 C32.04015625 24.7740625 32.04015625 24.7740625 31.53515625 26.2890625 C23.94515625 26.2890625 16.35515625 26.2890625 8.53515625 26.2890625 C8.20515625 25.6290625 7.87515625 24.9690625 7.53515625 24.2890625 C4.82068646 23.97664795 2.19606264 23.77569658 -0.52734375 23.6640625 C-1.28595703 23.62539062 -2.04457031 23.58671875 -2.82617188 23.546875 C-4.7053157 23.45232688 -6.58504711 23.36959494 -8.46484375 23.2890625 C-8.79484375 24.2790625 -9.12484375 25.2690625 -9.46484375 26.2890625 C-13.09484375 26.2890625 -16.72484375 26.2890625 -20.46484375 26.2890625 C-18.26989216 20.80168352 -15.58557731 16.01428135 -12.52734375 10.9765625 C-12.00849609 10.04521484 -11.48964844 9.11386719 -10.95507812 8.15429688 C-7.98474658 3.33324747 -5.83504526 0.61994846 0 0 Z M-0.46484375 10.2890625 C-1.45484375 12.2690625 -2.44484375 14.2490625 -3.46484375 16.2890625 C-1.48484375 16.2890625 0.49515625 16.2890625 2.53515625 16.2890625 C1.87515625 14.3090625 1.21515625 12.3290625 0.53515625 10.2890625 C0.20515625 10.2890625 -0.12484375 10.2890625 -0.46484375 10.2890625 Z M40.53515625 10.2890625 C39.54515625 12.2690625 38.55515625 14.2490625 37.53515625 16.2890625 C39.51515625 16.2890625 41.49515625 16.2890625 43.53515625 16.2890625 C42.87515625 14.3090625 42.21515625 12.3290625 41.53515625 10.2890625 C41.20515625 10.2890625 40.87515625 10.2890625 40.53515625 10.2890625 Z " fill="#000000" transform="translate(378.46484375,109.7109375)"/>
<path d="M0 0 C11.90674487 -1.53255132 11.90674487 -1.53255132 15.74267578 1.27587891 C19.31765377 4.81245069 22.19886199 8.83830924 25 13 C25.33 8.71 25.66 4.42 26 0 C29.63 0 33.26 0 37 0 C37 8.25 37 16.5 37 25 C25.69824444 26.32254586 25.69824444 26.32254586 20.9453125 22.62109375 C17.88617124 19.40635731 14.99144231 15.98288462 13 12 C12.67 16.29 12.34 20.58 12 25 C8.04 25 4.08 25 0 25 C0 16.75 0 8.5 0 0 Z " fill="#000000" transform="translate(294,159)"/>
<path d="M0 0 C11.90674487 -1.53255132 11.90674487 -1.53255132 15.74267578 1.27587891 C19.31765377 4.81245069 22.19886199 8.83830924 25 13 C25.33 8.71 25.66 4.42 26 0 C29.63 0 33.26 0 37 0 C37 8.25 37 16.5 37 25 C25.69824444 26.32254586 25.69824444 26.32254586 20.9453125 22.62109375 C17.88617124 19.40635731 14.99144231 15.98288462 13 12 C12.67 16.29 12.34 20.58 12 25 C8.04 25 4.08 25 0 25 C0 16.75 0 8.5 0 0 Z " fill="#000000" transform="translate(237,159)"/>
<path d="M0 0 C11.40986159 -1.20103806 11.40986159 -1.20103806 15.76171875 2.0859375 C18.02203275 4.63392783 20.04753341 7.21076202 22 10 C22.99 11.32 23.98 12.64 25 14 C25.33 9.38 25.66 4.76 26 0 C29.63 0 33.26 0 37 0 C37 8.25 37 16.5 37 25 C25.09325513 26.53255132 25.09325513 26.53255132 21.25732422 23.72412109 C17.68234623 20.18754931 14.80113801 16.16169076 12 12 C11.67 16.29 11.34 20.58 11 25 C7.37 25 3.74 25 0 25 C0 16.75 0 8.5 0 0 Z " fill="#000000" transform="translate(196,159)"/>
<path d="M0 0 C11.29685839 -1.32197279 11.29685839 -1.32197279 16.01953125 2.34375 C19.34673691 6.0460579 22.24125512 9.86188268 25 14 C25.33 9.38 25.66 4.76 26 0 C29.63 0 33.26 0 37 0 C37 8.25 37 16.5 37 25 C25.09325513 26.53255132 25.09325513 26.53255132 21.25732422 23.72412109 C17.68234623 20.18754931 14.80113801 16.16169076 12 12 C11.67 16.29 11.34 20.58 11 25 C7.37 25 3.74 25 0 25 C0 16.75 0 8.5 0 0 Z " fill="#000000" transform="translate(250,111)"/>
<path d="M0 0 C3.609375 -0.061875 7.21875 -0.12375 10.9375 -0.1875 C12.61573853 -0.22846802 12.61573853 -0.22846802 14.32788086 -0.27026367 C20.40548867 -0.32022544 26.63899298 -0.20517061 32 3 C33.94182242 5.91216817 34.00423755 6.93961491 33.75 10.5625 C33 14 33 14 31 17 C31.66 17.66 32.32 18.32 33 19 C33.39764263 20.98821313 33.73775349 22.98944339 34 25 C30.29356074 25.28317448 26.69613029 25.45856325 23 25 C21.375 22.625 21.375 22.625 20 20 C17.05920534 18.94173935 14.08908073 18.43389604 11 18 C11 20.31 11 22.62 11 25 C7.37 25 3.74 25 0 25 C0 16.75 0 8.5 0 0 Z M11 7 C11 8.65 11 10.3 11 12 C16.445 11.505 16.445 11.505 22 11 C22 10.01 22 9.02 22 8 C19.59454362 6.79727181 18.05003047 6.89928528 15.375 6.9375 C14.55773437 6.94652344 13.74046875 6.95554687 12.8984375 6.96484375 C12.27195312 6.97644531 11.64546875 6.98804687 11 7 Z " fill="#000000" transform="translate(323,111)"/>
<path d="M0 0 C2.6875 2.1875 2.6875 2.1875 4.6875 5.1875 C4.6875 6.1775 4.6875 7.1675 4.6875 8.1875 C2.75030622 8.24156122 0.81268079 8.28032025 -1.125 8.3125 C-2.20394531 8.33570313 -3.28289062 8.35890625 -4.39453125 8.3828125 C-7.3125 8.1875 -7.3125 8.1875 -10.3125 6.1875 C-14.13998905 6.36982592 -14.13998905 6.36982592 -17.3125 8.1875 C-17.02519945 10.52694736 -16.69313221 12.8614143 -16.3125 15.1875 C-14.6625 15.5175 -13.0125 15.8475 -11.3125 16.1875 C-10.9825 14.2075 -10.6525 12.2275 -10.3125 10.1875 C-5.3625 10.1875 -0.4125 10.1875 4.6875 10.1875 C4.6875 14.8075 4.6875 19.4275 4.6875 24.1875 C3.0375 24.1875 1.3875 24.1875 -0.3125 24.1875 C-0.3125 23.5275 -0.3125 22.8675 -0.3125 22.1875 C-1.055 22.5175 -1.7975 22.8475 -2.5625 23.1875 C-8.88833102 24.87438827 -16.08031925 25.36903631 -22.3125 23 C-25.72572187 20.93784512 -27.43089093 19.72492505 -29.3125 16.1875 C-29.97564758 11.61328885 -29.82523906 7.60507269 -28.25 3.25 C-21.74907189 -3.67034282 -8.15345477 -4.46294366 0 0 Z " fill="#000000" transform="translate(364.3125,160.8125)"/>
<path d="M0 0 C9.57 0 19.14 0 29 0 C29 2.31 29 4.62 29 7 C23.06 7 17.12 7 11 7 C11 7.99 11 8.98 11 10 C15.95 10 20.9 10 26 10 C26 11.98 26 13.96 26 16 C21.05 16 16.1 16 11 16 C11 16.66 11 17.32 11 18 C12.28777344 17.98839844 13.57554687 17.97679687 14.90234375 17.96484375 C16.58072772 17.9554673 18.25911326 17.94636695 19.9375 17.9375 C21.21270508 17.92493164 21.21270508 17.92493164 22.51367188 17.91210938 C23.32255859 17.90888672 24.13144531 17.90566406 24.96484375 17.90234375 C25.7137085 17.89710693 26.46257324 17.89187012 27.23413086 17.88647461 C29 18 29 18 30 19 C30 20.98 30 22.96 30 25 C20.1 25 10.2 25 0 25 C0 16.75 0 8.5 0 0 Z " fill="#000000" transform="translate(217,111)"/>
<path d="M0 0 C1.29550781 -0.02578125 2.59101563 -0.0515625 3.92578125 -0.078125 C9.23625531 0.38509392 12.45082419 1.91569189 16.0625 5.8125 C17.6875 8.25 17.6875 8.25 17.6875 10.25 C15.75030622 10.30406122 13.81268079 10.34282025 11.875 10.375 C10.79605469 10.39820312 9.71710938 10.42140625 8.60546875 10.4453125 C5.6875 10.25 5.6875 10.25 2.6875 8.25 C-0.40245097 8.16776634 -0.40245097 8.16776634 -3.3125 9.25 C-4.96272176 11.54164947 -4.96272176 11.54164947 -5.3125 14.25 C-3.67721811 17.27963562 -3.67721811 17.27963562 -1.5 18.0625 C0.75860716 18.4314385 0.75860716 18.4314385 2.9296875 17.26953125 C6.13039368 16.08626735 8.59986024 16.05027165 12 16.125 C13.06863281 16.14304687 14.13726562 16.16109375 15.23828125 16.1796875 C16.04652344 16.20289062 16.85476562 16.22609375 17.6875 16.25 C15.38704128 22.22534404 15.38704128 22.22534404 12.6875 24.25 C5.83241649 26.92684097 -1.6864725 27.57890542 -8.828125 25.52734375 C-11.98596776 24.08292308 -13.99970014 22.60189984 -16.3125 20 C-18.04963153 15.2228883 -18.13654536 11.10410206 -16.0625 6.4375 C-11.4969529 0.73056613 -7.09811771 0.08425066 0 0 Z " fill="#000000" transform="translate(196.3125,110.75)"/>
<path d="M0 0 C9.9 0 19.8 0 30 0 C30 2.31 30 4.62 30 7 C26.7 7 23.4 7 20 7 C20 12.94 20 18.88 20 25 C16.37 25 12.74 25 9 25 C9 19.06 9 13.12 9 7 C6.03 7 3.06 7 0 7 C0 4.69 0 2.38 0 0 Z " fill="#000000" transform="translate(290,111)"/>
<path d="M0 0 C3.63 0 7.26 0 11 0 C11 5.94 11 11.88 11 18 C16.94 18 22.88 18 29 18 C29 20.31 29 22.62 29 25 C19.43 25 9.86 25 0 25 C0 16.75 0 8.5 0 0 Z " fill="#000000" transform="translate(442,111)"/>
<path d="M0 0 C3.96 0 7.92 0 12 0 C12 8.25 12 16.5 12 25 C8.04 25 4.08 25 0 25 C0 16.75 0 8.5 0 0 Z " fill="#000000" transform="translate(180,159)"/>
<path d="M0 0 C3.63 0 7.26 0 11 0 C11 8.25 11 16.5 11 25 C7.37 25 3.74 25 0 25 C0 16.75 0 8.5 0 0 Z " fill="#000000" transform="translate(279,159)"/>
</svg>
